<?xml version="1.0" encoding="utf-8"?>
<!-- Generator: Adobe Illustrator 17.0.0, SVG Export Plug-In . SVG Version: 6.00 Build 0)  -->
<!DOCTYPE svg PUBLIC "-//W3C//DTD SVG 1.1//EN" "http://www.w3.org/Graphics/SVG/1.1/DTD/svg11.dtd">
<svg version="1.1" id="Layer_1" xmlns="http://www.w3.org/2000/svg" xmlns:xlink="http://www.w3.org/1999/xlink" x="0px" y="0px"
	 width="50px" height="50px" viewBox="0 0 50 50" enable-background="new 0 0 50 50" xml:space="preserve">
<rect fill="#363842" width="50" height="50"/>
<g>
	<circle fill="#FFFFFF" cx="25.2" cy="25" r="23.533"/>
	<path fill="#E3E9F3" d="M48.533,25c0,12.997-10.536,23.533-23.533,23.533S1.467,37.997,1.467,25
		c0,6.847,10.536,18.331,23.533,18.331S48.533,32.119,48.533,25z"/>
	<path fill="#363842" d="M25,49.396C11.548,49.396,0.604,38.452,0.604,25C0.604,11.548,11.548,0.604,25,0.604
		S49.396,11.548,49.396,25C49.396,38.452,38.452,49.396,25,49.396z M25,2.329C12.499,2.329,2.329,12.499,2.329,25
		S12.499,47.671,25,47.671S47.671,37.501,47.671,25S37.501,2.329,25,2.329z"/>
	<path fill="#E4EBF4" d="M32.634,9.669c0.603,0.226,1.077,0.431,1.506,0.707c0.429,0.276,0.833,0.627,1.297,1.199
		c0.349,0.432,0.983,0.499,1.415,0.15c0.432-0.349,0.499-0.983,0.15-1.415c-0.574-0.712-1.161-1.235-1.776-1.628
		c-0.615-0.394-1.238-0.654-1.886-0.897c-0.52-0.195-1.1,0.069-1.295,0.589C31.85,8.894,32.113,9.474,32.634,9.669L32.634,9.669z"/>
	<path fill="#E4EBF4" d="M28.266,8.737L28.262,8.69L28.266,8.737L28.266,8.737L28.262,8.69L28.266,8.737
		c0.019-0.002,0.184-0.014,0.453-0.014c0.266,0,0.634,0.012,1.067,0.057c0.553,0.057,1.047-0.344,1.105-0.897
		c0.057-0.553-0.344-1.047-0.897-1.105c-0.513-0.053-0.949-0.068-1.275-0.068c-0.378,0-0.606,0.019-0.632,0.022
		c-0.553,0.049-0.962,0.538-0.913,1.091C27.224,8.378,27.712,8.786,28.266,8.737L28.266,8.737z"/>
	<path fill="#363842" d="M20.035,33.556h9.374c0.635,0,1.15-0.515,1.15-1.15c0-0.635-0.515-1.15-1.15-1.15h-9.374
		c-0.635,0-1.15,0.515-1.15,1.15C18.885,33.042,19.4,33.556,20.035,33.556"/>
	<path fill="#363842" d="M10.106,23.956h4.687c0.397,0,0.719-0.322,0.719-0.719c0-0.397-0.322-0.719-0.719-0.719h-4.687
		c-0.397,0-0.719,0.322-0.719,0.719C9.387,23.634,9.709,23.956,10.106,23.956"/>
	<path fill="#363842" d="M35.06,23.956h4.687c0.397,0,0.719-0.322,0.719-0.719c0-0.397-0.322-0.719-0.719-0.719H35.06
		c-0.397,0-0.719,0.322-0.719,0.719C34.341,23.634,34.663,23.956,35.06,23.956"/>
</g>
</svg>
