<?xml version="1.0" encoding="utf-8"?>
<!-- Generator: Adobe Illustrator 17.0.0, SVG Export Plug-In . SVG Version: 6.00 Build 0)  -->
<!DOCTYPE svg PUBLIC "-//W3C//DTD SVG 1.1//EN" "http://www.w3.org/Graphics/SVG/1.1/DTD/svg11.dtd">
<svg version="1.1" id="Layer_1" xmlns="http://www.w3.org/2000/svg" xmlns:xlink="http://www.w3.org/1999/xlink" x="0px" y="0px"
	 width="248.792px" height="59px" viewBox="0 0 248.792 59" enable-background="new 0 0 248.792 59" xml:space="preserve">
<g>
	<path fill="#0088FF" d="M118.504,21.832v-6.351h0.833v5.649h2.953v0.702H118.504z"/>
	<path fill="#0088FF" d="M123.412,21.832v-6.351h0.833v6.351H123.412z"/>
	<path fill="#0088FF" d="M128.768,21.928c-0.684,0-1.269-0.132-1.754-0.395s-0.85-0.631-1.093-1.104
		c-0.242-0.473-0.364-1.029-0.364-1.668c0-0.651,0.138-1.234,0.412-1.749c0.275-0.515,0.663-0.917,1.163-1.208
		c0.5-0.291,1.07-0.436,1.71-0.436c0.822,0,1.52,0.212,2.089,0.637l-0.336,0.58c-0.503-0.343-1.081-0.515-1.735-0.515
		c-0.483,0-0.91,0.115-1.283,0.345c-0.372,0.229-0.657,0.546-0.856,0.949s-0.299,0.857-0.299,1.363c0,0.762,0.203,1.369,0.61,1.821
		s0.997,0.678,1.771,0.678c0.525,0,0.988-0.076,1.387-0.227v-1.797h-1.605v-0.711h2.435v2.975
		C130.344,21.774,129.593,21.928,128.768,21.928z"/>
	<path fill="#0088FF" d="M132.628,21.832v-6.351h0.838v2.744h3.372v-2.744h0.828v6.351h-0.824v-2.905h-3.376v2.905H132.628z"/>
	<path fill="#0088FF" d="M140.62,21.832v-5.648h-2.028v-0.703h4.902v0.703h-2.041v5.648H140.62z"/>
	<path fill="#0088FF" d="M144.422,21.832v-6.351h0.838v2.744h3.372v-2.744h0.828v6.351h-0.824v-2.905h-3.376v2.905H144.422z"/>
	<path fill="#0088FF" d="M153.902,21.928c-0.96,0-1.715-0.295-2.267-0.886c-0.551-0.59-0.826-1.387-0.826-2.39
		c0-0.648,0.121-1.219,0.364-1.712c0.242-0.493,0.6-0.878,1.07-1.156c0.472-0.278,1.027-0.417,1.667-0.417
		c0.934,0,1.677,0.302,2.23,0.905c0.555,0.603,0.831,1.396,0.831,2.379c0,1-0.273,1.796-0.819,2.388
		C155.606,21.632,154.855,21.928,153.902,21.928z M153.893,21.226c0.709,0,1.249-0.229,1.618-0.687s0.554-1.086,0.554-1.886
		c0-0.782-0.186-1.408-0.556-1.878c-0.371-0.47-0.907-0.705-1.607-0.705c-0.698,0-1.24,0.236-1.625,0.709
		c-0.386,0.473-0.578,1.097-0.578,1.874c0,0.797,0.189,1.425,0.567,1.884S153.186,21.226,153.893,21.226z"/>
	<path fill="#0088FF" d="M160.68,21.928c-1.669,0-2.504-0.847-2.504-2.539v-3.908h0.833v3.926c0,0.623,0.142,1.081,0.424,1.376
		c0.281,0.295,0.7,0.442,1.256,0.442c1.122,0,1.684-0.6,1.684-1.801v-3.943h0.829v3.9c0,0.387-0.047,0.731-0.14,1.034
		c-0.093,0.302-0.237,0.569-0.432,0.8c-0.195,0.231-0.457,0.408-0.785,0.53C161.516,21.867,161.128,21.928,160.68,21.928z"/>
	<path fill="#0088FF" d="M166.573,21.226c0.175,0,0.332-0.016,0.474-0.048c0.141-0.032,0.264-0.078,0.368-0.137
		s0.192-0.134,0.264-0.223s0.125-0.19,0.159-0.305c0.035-0.115,0.053-0.242,0.053-0.382c0-0.151-0.017-0.278-0.048-0.382
		c-0.032-0.103-0.094-0.201-0.184-0.294c-0.09-0.093-0.213-0.176-0.368-0.25c-0.156-0.074-0.361-0.15-0.617-0.229
		c-0.026-0.009-0.09-0.027-0.19-0.055c-0.1-0.027-0.166-0.047-0.198-0.059c-0.607-0.174-1.051-0.395-1.328-0.663
		s-0.416-0.653-0.416-1.156c0-0.357,0.093-0.664,0.278-0.92c0.187-0.256,0.436-0.445,0.748-0.569s0.673-0.186,1.08-0.186
		c0.857,0,1.511,0.221,1.958,0.663l-0.414,0.562c-0.148-0.145-0.349-0.269-0.602-0.371s-0.534-0.153-0.842-0.153
		c-0.401,0-0.723,0.08-0.962,0.24c-0.24,0.16-0.36,0.396-0.36,0.707c0,0.209,0.028,0.375,0.085,0.497s0.16,0.229,0.31,0.318
		c0.15,0.09,0.376,0.183,0.679,0.279c0.006,0.003,0.061,0.019,0.164,0.048c0.103,0.029,0.172,0.048,0.207,0.057
		c0.372,0.111,0.678,0.226,0.918,0.345s0.433,0.257,0.578,0.412c0.146,0.156,0.247,0.327,0.305,0.513
		c0.059,0.186,0.088,0.41,0.088,0.672c0,0.293-0.057,0.555-0.168,0.783c-0.112,0.229-0.267,0.414-0.465,0.556
		c-0.197,0.143-0.425,0.25-0.681,0.323s-0.535,0.109-0.837,0.109c-0.475,0-0.898-0.078-1.271-0.233
		c-0.374-0.156-0.646-0.316-0.818-0.482l0.371-0.602c0.186,0.148,0.431,0.288,0.732,0.418
		C165.924,21.16,166.241,21.226,166.573,21.226z"/>
	<path fill="#0088FF" d="M170.132,21.832v-6.351h3.804v0.703h-2.971v1.998h2.805v0.707h-2.805v2.242h3.098v0.702H170.132z"/>
	<path fill="#0088FF" d="M177.983,21.832v-6.351h0.833v5.649h2.953v0.702H177.983z"/>
	<path fill="#0088FF" d="M182.075,21.832l2.465-6.351h0.89l2.478,6.351h-0.911l-0.654-1.697h-2.718l-0.641,1.697H182.075z
		 M183.85,19.455h2.242c-0.369-1.044-0.741-2.078-1.116-3.101C184.598,17.392,184.222,18.425,183.85,19.455z"/>
	<path fill="#0088FF" d="M188.923,21.832v-6.351h1.68c0.188,0,0.364,0.005,0.525,0.016c0.161,0.01,0.331,0.029,0.508,0.057
		c0.178,0.027,0.337,0.064,0.479,0.111c0.141,0.047,0.277,0.11,0.409,0.19c0.133,0.08,0.242,0.173,0.33,0.279
		c0.087,0.106,0.156,0.235,0.209,0.388c0.053,0.152,0.078,0.322,0.078,0.508c0,0.352-0.088,0.651-0.264,0.898
		s-0.437,0.418-0.783,0.515c0.428,0.073,0.76,0.249,0.997,0.528s0.355,0.631,0.355,1.056c0,0.523-0.196,0.955-0.589,1.295
		s-0.952,0.51-1.68,0.51H188.923z M189.756,18.168h1.104c0.937,0,1.405-0.346,1.405-1.038c0-0.358-0.128-0.605-0.384-0.742
		c-0.256-0.136-0.644-0.205-1.161-0.205h-0.964V18.168z M189.761,21.121h1.282c0.491,0,0.867-0.096,1.128-0.288
		c0.26-0.192,0.39-0.468,0.39-0.829c0-0.424-0.124-0.722-0.372-0.892c-0.249-0.17-0.669-0.255-1.259-0.255h-1.169V21.121z"/>
	<path fill="#0088FF" d="M196.574,21.226c0.175,0,0.332-0.016,0.474-0.048c0.141-0.032,0.264-0.078,0.368-0.137
		s0.192-0.134,0.264-0.223s0.125-0.19,0.159-0.305c0.035-0.115,0.053-0.242,0.053-0.382c0-0.151-0.017-0.278-0.048-0.382
		c-0.032-0.103-0.094-0.201-0.184-0.294c-0.09-0.093-0.213-0.176-0.368-0.25c-0.156-0.074-0.361-0.15-0.617-0.229
		c-0.026-0.009-0.09-0.027-0.19-0.055c-0.1-0.027-0.166-0.047-0.198-0.059c-0.607-0.174-1.051-0.395-1.328-0.663
		s-0.416-0.653-0.416-1.156c0-0.357,0.093-0.664,0.278-0.92c0.187-0.256,0.436-0.445,0.748-0.569s0.673-0.186,1.08-0.186
		c0.857,0,1.511,0.221,1.958,0.663l-0.414,0.562c-0.148-0.145-0.349-0.269-0.602-0.371s-0.534-0.153-0.842-0.153
		c-0.401,0-0.723,0.08-0.962,0.24c-0.24,0.16-0.36,0.396-0.36,0.707c0,0.209,0.028,0.375,0.085,0.497s0.16,0.229,0.31,0.318
		c0.15,0.09,0.376,0.183,0.679,0.279c0.006,0.003,0.061,0.019,0.164,0.048c0.103,0.029,0.172,0.048,0.207,0.057
		c0.372,0.111,0.678,0.226,0.918,0.345s0.433,0.257,0.578,0.412c0.146,0.156,0.247,0.327,0.305,0.513
		c0.059,0.186,0.088,0.41,0.088,0.672c0,0.293-0.057,0.555-0.168,0.783c-0.112,0.229-0.267,0.414-0.465,0.556
		c-0.197,0.143-0.425,0.25-0.681,0.323s-0.535,0.109-0.837,0.109c-0.475,0-0.898-0.078-1.271-0.233
		c-0.374-0.156-0.646-0.316-0.818-0.482l0.371-0.602c0.186,0.148,0.431,0.288,0.732,0.418
		C195.925,21.16,196.242,21.226,196.574,21.226z"/>
</g>
<g>
	<path fill="#0088FF" d="M2.122,42.991V26.73H5.45c0.23,0.514,1.048,2.334,2.451,5.461c1.403,3.127,2.481,5.514,3.233,7.159
		c0.573-1.243,1.163-2.548,1.77-3.914c0.607-1.366,1.307-2.954,2.1-4.764c0.793-1.809,1.372-3.123,1.737-3.942h3.327v16.261h-2.657
		V31.377c-0.395,0.855-2.141,4.728-5.238,11.614h-2.088c-0.388-0.849-0.931-2.053-1.631-3.613c-0.7-1.56-1.34-2.974-1.921-4.243
		s-1.139-2.459-1.675-3.568v11.425H2.122z"/>
	<path fill="#0088FF" d="M24.312,42.991V26.73h10.264v2.435h-7.427v4.345h7.024v2.445h-6.991v4.602h7.717v2.435H24.312z"/>
	<path fill="#0088FF" d="M38.262,42.991V26.73h3.004c5.167,7.49,7.918,11.48,8.253,11.973V26.73h2.703v16.261h-3.016
		c-4.996-7.215-7.77-11.213-8.32-11.994v11.994H38.262z"/>
	<path fill="#0088FF" d="M59.481,42.991V29.165h-5.015V26.73H67.41v2.435h-5.093v13.826H59.481z"/>
	<path fill="#0088FF" d="M76.913,43.248c-2.539,0-4.539-0.765-6.003-2.295c-1.463-1.53-2.194-3.587-2.194-6.17
		c0-2.517,0.735-4.538,2.206-6.064c1.47-1.526,3.479-2.29,6.025-2.29c2.464,0,4.424,0.761,5.88,2.284
		c1.455,1.522,2.183,3.546,2.183,6.07c0,2.591-0.718,4.649-2.155,6.176C81.418,42.485,79.438,43.248,76.913,43.248z M76.847,40.824
		c1.66,0,2.922-0.522,3.785-1.568c0.864-1.046,1.296-2.537,1.296-4.473c0-1.877-0.432-3.334-1.296-4.373
		c-0.863-1.038-2.11-1.558-3.741-1.558c-1.646,0-2.909,0.52-3.791,1.558c-0.883,1.039-1.323,2.496-1.323,4.373
		c0,1.942,0.428,3.436,1.284,4.478C73.916,40.304,75.179,40.824,76.847,40.824z"/>
	<path fill="#0088FF" d="M88.316,42.991V26.73h5.863c0.894,0,1.665,0.067,2.317,0.201c0.651,0.134,1.241,0.363,1.77,0.687
		c0.529,0.324,0.928,0.786,1.195,1.385s0.402,1.338,0.402,2.216c0,0.916-0.272,1.726-0.815,2.43
		c-0.544,0.703-1.362,1.178-2.457,1.424c0.976,0.543,1.693,1.393,2.155,2.546l2.2,5.372h-3.071l-1.865-4.836
		c-0.305-0.796-0.637-1.336-0.994-1.619s-0.896-0.425-1.619-0.425h-2.244v6.88H88.316z M91.119,33.711h2.714
		c2.025,0,3.038-0.786,3.038-2.356c0-0.856-0.212-1.436-0.637-1.737c-0.425-0.302-1.124-0.453-2.1-0.453h-3.016V33.711z"/>
	<path fill="#0088FF" d="M115.365,43.248c-1.117,0-2.193-0.164-3.228-0.491c-1.035-0.328-1.851-0.782-2.446-1.362l1.206-2.033
		c0.528,0.41,1.216,0.756,2.061,1.039s1.588,0.424,2.229,0.424c1.005,0,1.747-0.186,2.228-0.558c0.48-0.373,0.721-0.938,0.721-1.698
		c0-0.297-0.022-0.537-0.067-0.72s-0.146-0.372-0.302-0.57c-0.156-0.196-0.389-0.379-0.697-0.547
		c-0.31-0.167-0.725-0.344-1.245-0.53c-0.224-0.074-0.602-0.197-1.134-0.368c-0.532-0.172-0.922-0.302-1.167-0.392
		c-1.341-0.506-2.312-1.104-2.915-1.792c-0.604-0.688-0.904-1.621-0.904-2.798c0-0.953,0.251-1.768,0.754-2.446
		c0.502-0.677,1.17-1.176,2.004-1.497c0.834-0.32,1.787-0.48,2.859-0.48c1.452,0,2.58,0.142,3.384,0.424
		c0.804,0.283,1.563,0.767,2.278,1.452l-1.452,1.876c-0.915-0.871-2.185-1.307-3.808-1.307c-0.887,0-1.606,0.152-2.161,0.458
		c-0.555,0.305-0.832,0.771-0.832,1.396c0,0.306,0.025,0.557,0.078,0.754c0.052,0.197,0.162,0.391,0.329,0.581
		c0.168,0.189,0.408,0.365,0.721,0.524c0.312,0.16,0.729,0.334,1.251,0.52c0.186,0.067,0.575,0.195,1.167,0.386
		c0.592,0.189,1.032,0.34,1.323,0.452c1.325,0.528,2.248,1.136,2.77,1.82s0.781,1.638,0.781,2.859c0,0.812-0.16,1.524-0.479,2.139
		c-0.32,0.613-0.756,1.096-1.307,1.445c-0.552,0.351-1.162,0.611-1.832,0.782S116.139,43.248,115.365,43.248z"/>
	<path fill="#0088FF" d="M124.557,42.991V26.73h10.263v2.435h-7.426v4.345h7.023v2.445h-6.99v4.602h7.717v2.435H124.557z"/>
	<path fill="#0088FF" d="M136.517,42.991l6.533-16.261h2.881l6.59,16.261h-3.205l-1.576-3.965h-6.566l-1.541,3.965H136.517z
		 M142.234,36.38h4.357c-0.857-2.539-1.576-4.649-2.156-6.332C143.951,31.455,143.218,33.565,142.234,36.38z"/>
	<path fill="#0088FF" d="M154.789,42.991V26.73h5.863c0.893,0,1.664,0.067,2.316,0.201c0.652,0.134,1.242,0.363,1.77,0.687
		c0.529,0.324,0.928,0.786,1.195,1.385s0.402,1.338,0.402,2.216c0,0.916-0.271,1.726-0.814,2.43
		c-0.545,0.703-1.363,1.178-2.457,1.424c0.975,0.543,1.693,1.393,2.154,2.546l2.201,5.372h-3.072l-1.865-4.836
		c-0.305-0.796-0.637-1.336-0.994-1.619s-0.896-0.425-1.619-0.425h-2.244v6.88H154.789z M157.591,33.711h2.713
		c2.025,0,3.039-0.786,3.039-2.356c0-0.856-0.213-1.436-0.637-1.737c-0.426-0.302-1.125-0.453-2.1-0.453h-3.016V33.711z"/>
	<path fill="#0088FF" d="M177.492,43.237c-1.072,0-2.092-0.185-3.059-0.553c-0.969-0.369-1.832-0.896-2.592-1.581
		c-0.76-0.685-1.365-1.565-1.814-2.641c-0.451-1.076-0.676-2.273-0.676-3.591c0-1.102,0.15-2.12,0.451-3.055
		c0.303-0.934,0.711-1.727,1.225-2.378c0.514-0.651,1.109-1.208,1.785-1.67c0.678-0.461,1.393-0.8,2.145-1.016
		c0.752-0.216,1.523-0.324,2.312-0.324c2.129,0,3.938,0.584,5.428,1.753l-1.105,1.977c-1.236-0.856-2.6-1.284-4.088-1.284
		c-0.693,0-1.35,0.138-1.971,0.413c-0.623,0.275-1.172,0.663-1.648,1.161c-0.477,0.499-0.855,1.128-1.139,1.888
		s-0.424,1.594-0.424,2.502c0,1.794,0.506,3.234,1.518,4.321c1.014,1.088,2.295,1.631,3.842,1.631c1.631,0,3.129-0.547,4.49-1.642
		l0.949,2.245C181.542,42.623,179.666,43.237,177.492,43.237z"/>
	<path fill="#0088FF" d="M186.326,42.991V26.73h2.838v6.689h7.627V26.73h2.836v16.261h-2.779v-7.114h-7.629v7.114H186.326z"/>
</g>
<g>
	<path fill="#C2C3C6" d="M226.761,46.933c-8.764,0-15.869,0.356-15.869,0.795s7.105,0.795,15.869,0.795
		c8.764,0,15.869-0.356,15.869-0.795C242.63,47.289,235.526,46.933,226.761,46.933"/>
	<circle fill="#FFFFFF" cx="226.924" cy="27.884" r="19.142"/>
	<path fill="#F9F5D6" d="M245.904,27.884c0,10.572-8.57,19.142-19.142,19.142s-19.142-8.57-19.142-19.142
		c0,5.57,8.57,14.91,19.142,14.91S245.904,33.674,245.904,27.884z"/>
	<path fill="#363842" d="M226.761,47.728c-10.942,0-19.844-8.902-19.844-19.844S215.819,8.04,226.761,8.04
		s19.844,8.902,19.844,19.844S237.703,47.728,226.761,47.728z M226.761,9.443c-10.168,0-18.441,8.273-18.441,18.441
		s8.273,18.441,18.441,18.441s18.441-8.273,18.441-18.441S236.93,9.443,226.761,9.443z"/>
	<path fill="#363842" d="M226.62,35.844c-1.527,0-2.349-1.793-2.437-1.997c-0.116-0.268-0.045-0.58,0.177-0.771
		c0.221-0.191,0.541-0.215,0.789-0.06c0.003,0.002,0.584,0.35,1.267,0.35c0.776,0,1.756-0.398,1.766-0.402
		c0.25-0.103,0.538-0.044,0.728,0.149c0.19,0.193,0.245,0.481,0.139,0.73C228.961,34.048,228.15,35.844,226.62,35.844z"/>
	<path fill="#363842" d="M236.185,27.277c0.094,0.132,0.272,0.159,0.41,0.073c0.22-0.139,0.481-0.22,0.76-0.22
		c0.28,0,0.54,0.081,0.76,0.22c0.137,0.087,0.316,0.059,0.41-0.074c0.219-0.309,0.319-0.708,0.231-1.132
		c-0.113-0.543-0.551-0.982-1.094-1.095c-0.926-0.192-1.741,0.509-1.741,1.402C235.921,26.759,236.019,27.043,236.185,27.277z"/>
	<path fill="#363842" d="M214.603,27.277c0.094,0.132,0.273,0.159,0.41,0.073c0.22-0.139,0.481-0.22,0.76-0.22
		c0.28,0,0.54,0.081,0.76,0.22c0.137,0.087,0.316,0.059,0.41-0.074c0.219-0.309,0.319-0.708,0.231-1.132
		c-0.113-0.543-0.551-0.982-1.094-1.095c-0.926-0.192-1.741,0.509-1.741,1.402C214.339,26.759,214.437,27.043,214.603,27.277z"/>
	<path fill="#F9F7D9" d="M235.626,17.13c0.41,0.326,0.726,0.603,0.989,0.923c0.263,0.321,0.488,0.693,0.704,1.252
		c0.162,0.422,0.636,0.632,1.058,0.47s0.632-0.636,0.47-1.058c-0.266-0.694-0.59-1.246-0.968-1.704
		c-0.378-0.459-0.795-0.816-1.235-1.166c-0.354-0.281-0.869-0.222-1.15,0.132C235.213,16.334,235.272,16.849,235.626,17.13
		L235.626,17.13z"/>
	<path fill="#F9F7D9" d="M232.238,15.138l0.028,0.011c0.133,0.053,0.723,0.292,1.378,0.581c0.413,0.182,0.897-0.005,1.079-0.418
		c0.182-0.413-0.005-0.897-0.418-1.079c-0.78-0.344-1.455-0.613-1.461-0.616c-0.42-0.167-0.896,0.037-1.063,0.457
		C231.613,14.495,231.818,14.971,232.238,15.138L232.238,15.138z"/>
</g>
</svg>
