<?xml version="1.0" encoding="utf-8"?>
<!-- Generator: Adobe Illustrator 17.0.0, SVG Export Plug-In . SVG Version: 6.00 Build 0)  -->
<!DOCTYPE svg PUBLIC "-//W3C//DTD SVG 1.1//EN" "http://www.w3.org/Graphics/SVG/1.1/DTD/svg11.dtd">
<svg version="1.1" id="Layer_1" xmlns="http://www.w3.org/2000/svg" xmlns:xlink="http://www.w3.org/1999/xlink" x="0px" y="0px"
	 width="248.792px" height="59px" viewBox="0 0 248.792 59" enable-background="new 0 0 248.792 59" xml:space="preserve">
<text transform="matrix(1 0 0 1 117.6233 21.832)" fill="#0088FF" font-family="'Muli'" font-size="8.9332">LIGHTHOUSE LABS</text>
<g>
	<text transform="matrix(1 0 0 1 -1.220703e-04 42.9912)" fill="#0088FF" font-family="'Muli-Bold'" font-size="22.872">MENTOR SEARCH</text>
</g>
<g>
	<path fill="#C2C3C6" d="M226.761,46.933c-8.764,0-15.869,0.356-15.869,0.795c0,0.439,7.105,0.795,15.869,0.795
		c8.764,0,15.869-0.356,15.869-0.795C242.63,47.289,235.526,46.933,226.761,46.933"/>
	<circle fill="#FFFFFF" cx="226.924" cy="27.884" r="19.142"/>
	<path fill="#F9F5D6" d="M245.904,27.884c0,10.572-8.57,19.142-19.142,19.142s-19.142-8.57-19.142-19.142
		c0,5.57,8.57,14.91,19.142,14.91S245.904,33.674,245.904,27.884z"/>
	<path fill="#363842" d="M226.761,47.728c-10.942,0-19.844-8.902-19.844-19.844c0-10.942,8.902-19.844,19.844-19.844
		s19.844,8.902,19.844,19.844C246.605,38.826,237.703,47.728,226.761,47.728z M226.761,9.443c-10.168,0-18.441,8.273-18.441,18.441
		s8.273,18.441,18.441,18.441c10.168,0,18.441-8.273,18.441-18.441S236.93,9.443,226.761,9.443z"/>
	<path fill="#363842" d="M226.62,35.844c-1.527,0-2.349-1.793-2.437-1.997c-0.116-0.268-0.045-0.58,0.177-0.771
		c0.221-0.191,0.541-0.215,0.789-0.06c0.003,0.002,0.584,0.35,1.267,0.35c0.776,0,1.756-0.398,1.766-0.402
		c0.25-0.103,0.538-0.044,0.728,0.149c0.19,0.193,0.245,0.481,0.139,0.73C228.961,34.048,228.15,35.844,226.62,35.844z"/>
	<path fill="#363842" d="M236.185,27.277c0.094,0.132,0.272,0.159,0.41,0.073c0.22-0.139,0.481-0.22,0.76-0.22
		c0.28,0,0.54,0.081,0.76,0.22c0.137,0.087,0.316,0.059,0.41-0.074c0.219-0.309,0.319-0.708,0.231-1.132
		c-0.113-0.543-0.551-0.982-1.094-1.095c-0.926-0.192-1.741,0.509-1.741,1.402C235.921,26.759,236.019,27.043,236.185,27.277z"/>
	<path fill="#363842" d="M214.603,27.277c0.094,0.132,0.273,0.159,0.41,0.073c0.22-0.139,0.481-0.22,0.76-0.22
		c0.28,0,0.54,0.081,0.76,0.22c0.137,0.087,0.316,0.059,0.41-0.074c0.219-0.309,0.319-0.708,0.231-1.132
		c-0.113-0.543-0.551-0.982-1.094-1.095c-0.926-0.192-1.741,0.509-1.741,1.402C214.339,26.759,214.437,27.043,214.603,27.277z"/>
	<path fill="#F9F7D9" d="M235.626,17.13c0.41,0.326,0.726,0.603,0.989,0.923c0.263,0.321,0.488,0.693,0.704,1.252
		c0.162,0.422,0.636,0.632,1.058,0.47c0.422-0.162,0.632-0.636,0.47-1.058c-0.266-0.694-0.59-1.246-0.968-1.704
		c-0.378-0.459-0.795-0.816-1.235-1.166c-0.354-0.281-0.869-0.222-1.15,0.132C235.213,16.334,235.272,16.849,235.626,17.13
		L235.626,17.13z"/>
	<path fill="#F9F7D9" d="M232.238,15.138l0.028,0.011c0.133,0.053,0.723,0.292,1.378,0.581c0.413,0.182,0.897-0.005,1.079-0.418
		c0.182-0.413-0.005-0.897-0.418-1.079c-0.78-0.344-1.455-0.613-1.461-0.616c-0.42-0.167-0.896,0.037-1.063,0.457
		C231.613,14.495,231.818,14.971,232.238,15.138L232.238,15.138z"/>
</g>
</svg>
