<?xml version="1.0" encoding="utf-8"?>
<!-- Generator: Adobe Illustrator 17.0.0, SVG Export Plug-In . SVG Version: 6.00 Build 0)  -->
<!DOCTYPE svg PUBLIC "-//W3C//DTD SVG 1.1//EN" "http://www.w3.org/Graphics/SVG/1.1/DTD/svg11.dtd">
<svg version="1.1" id="Layer_1" xmlns="http://www.w3.org/2000/svg" xmlns:xlink="http://www.w3.org/1999/xlink" x="0px" y="0px"
	 width="50px" height="50px" viewBox="0 0 50 50" enable-background="new 0 0 50 50" xml:space="preserve">
<g>
	<path fill="#0088FF" d="M3,3.484v44h44v-44H3z M27,37.505c0,4.317-2.384,6.279-6.07,6.279c-3.33,0-5.193-1.724-6.169-3.805
		l3.426-2.057c0.654,1.165,1.699,2.141,3.126,2.141c1.368,0,2.686-0.535,2.686-2.616V23.484h3V37.505z M37.145,43.784
		c-3.865,0-6.362-1.843-7.587-4.257l3.389-1.962c0.892,1.463,2.057,2.533,4.103,2.533c1.736,0,2.83-0.868,2.83-2.057
		c0-1.427-1.13-1.938-3.032-2.771l-1.046-0.44c-2.997-1.284-4.995-2.89-4.995-6.279c0-3.128,2.378-5.506,6.101-5.506
		c2.652,0,4.555,0.928,5.922,3.33l-3.246,2.081c-0.713-1.272-1.486-1.784-2.676-1.784c-1.225,0-1.998,0.773-1.998,1.784
		c0,1.249,0.773,1.76,2.557,2.533l1.046,0.452c3.544,1.51,5.53,3.056,5.53,6.541C44.042,41.727,41.105,43.784,37.145,43.784z"/>
</g>
</svg>
