<?xml version="1.0" encoding="utf-8"?>
<!-- Generator: Adobe Illustrator 17.0.0, SVG Export Plug-In . SVG Version: 6.00 Build 0)  -->
<!DOCTYPE svg PUBLIC "-//W3C//DTD SVG 1.1//EN" "http://www.w3.org/Graphics/SVG/1.1/DTD/svg11.dtd">
<svg version="1.1" id="Layer_1" xmlns="http://www.w3.org/2000/svg" xmlns:xlink="http://www.w3.org/1999/xlink" x="0px" y="0px"
	 width="50px" height="50px" viewBox="0 0 50 50" enable-background="new 0 0 50 50" xml:space="preserve">
<g>
	<path fill="#0088FF" d="M33.7,22.67L33.7,22.67l-0.604,2.14L33.7,22.67L33.7,22.67z"/>
	<path fill="#0088FF" d="M36.807,27.317l-0.666-0.004L36.807,27.317z"/>
	<path fill="#0088FF" d="M36.636,30.514L36.636,30.514l-3.987,0.015L36.636,30.514L36.636,30.514z"/>
	<path fill="#0088FF" d="M37.472,27.321l-0.666-0.004L37.472,27.321z"/>
	<path fill="#0088FF" d="M36.985,30.243l0.695-2.649L36.985,30.243L36.985,30.243L36.985,30.243z"/>
	<path fill="#0088FF" d="M16.667,25.778l0.43-1.905l-0.491,2.178l-0.472,2.219l0.413-1.945
		C16.578,26.174,16.633,25.928,16.667,25.778L16.667,25.778z"/>
	<path fill="#0088FF" d="M21.811,17.737h-3.039c-0.154,0-0.307,0.123-0.341,0.272l-0.288,1.272l-0.288,1.272
		c-0.034,0.15,0.064,0.272,0.218,0.272h3.062c0.153,0,0.306-0.123,0.339-0.273l0.278-1.272l0.278-1.271v0
		C22.063,17.86,21.965,17.737,21.811,17.737L21.811,17.737z"/>
	<path fill="#0088FF" d="M21.149,21.968L21.149,21.968l-0.891,4.123L21.149,21.968z"/>
	<path fill="#0088FF" d="M12.322,35.629c0,0,1.532,0.02,2.506,0.02c-0.74,0-1.961-0.014-2.507-0.02
		C12.321,35.629,12.322,35.629,12.322,35.629L12.322,35.629z"/>
	<path fill="#0088FF" d="M17.526,21.967l-0.43,1.905L17.526,21.967z"/>
	<path fill="#0088FF" d="M20.93,21.695h-3.063c-0.154,0-0.307,0.123-0.341,0.273l-0.43,1.905l-0.43,1.905
		c-0.034,0.15-0.088,0.396-0.12,0.546l-0.413,1.945l-0.413,1.945c-0.032,0.15-0.098,0.392-0.147,0.538c0,0-0.572,1.702-1.534,1.683
		c-0.041-0.001-0.081-0.001-0.12-0.002c-0.466-0.009-0.832-0.016-0.832-0.016h-0.001c-0.153-0.003-0.307,0.118-0.343,0.266
		l-0.318,1.335l-0.317,1.334c-0.036,0.149,0.061,0.272,0.213,0.275c0.545,0.007,1.767,0.021,2.507,0.021
		c2.403,0,3.669-1.332,4.481-5.162l0.95-4.397l0.891-4.123C21.182,21.817,21.083,21.695,20.93,21.695L20.93,21.695z"/>
	<path fill="#0088FF" d="M33.776,22.402L33.7,22.669c0,0.001,0,0.001,0,0.001l-0.604,2.14l-0.603,2.139
		c-0.042,0.148-0.201,0.269-0.355,0.269h-3.196c-2.424,0-3.014-1.896-2.424-4.693c0.59-2.86,1.747-4.638,4.133-4.818
		C33.911,17.461,34.563,19.755,33.776,22.402L33.776,22.402z M35.968,27.054c0,0,1.507-3.658,1.849-5.772
		c0.469-2.829-0.948-6.931-6.418-6.931c-5.44,0-7.801,3.917-8.703,8.174c-0.901,4.289,0.28,8.049,5.688,8.019l4.266-0.016
		l3.988-0.015c0.154-0.001,0.311-0.123,0.35-0.271l0.695-2.65c0.039-0.149-0.055-0.271-0.209-0.272l-0.666-0.004l-0.666-0.004
		c-0.131-0.001-0.205-0.086-0.189-0.198c0.003-0.021,0.007-0.041,0.016-0.062L35.968,27.054L35.968,27.054L35.968,27.054z"/>
</g>
<circle fill="none" stroke="#0088FF" stroke-width="4" stroke-miterlimit="10" cx="25" cy="25" r="19.564"/>
</svg>
