<?xml version="1.0" encoding="utf-8"?>
<!-- Generator: Adobe Illustrator 17.0.0, SVG Export Plug-In . SVG Version: 6.00 Build 0)  -->
<!DOCTYPE svg PUBLIC "-//W3C//DTD SVG 1.1//EN" "http://www.w3.org/Graphics/SVG/1.1/DTD/svg11.dtd">
<svg version="1.1" id="Layer_1" xmlns="http://www.w3.org/2000/svg" xmlns:xlink="http://www.w3.org/1999/xlink" x="0px" y="0px"
	 width="50px" height="50px" viewBox="0 0 50 50" enable-background="new 0 0 50 50" xml:space="preserve">
<g>
	<path fill="#0088FF" d="M23.209,3.594c1.085-0.621,2.498-0.624,3.581,0c5.452,3.081,10.906,6.157,16.358,9.239
		c1.025,0.578,1.711,1.719,1.701,2.9v18.535c0.008,1.23-0.746,2.399-1.828,2.963c-5.434,3.064-10.866,6.131-16.299,9.195
		c-1.107,0.633-2.548,0.584-3.621-0.101c-1.629-0.944-3.261-1.884-4.891-2.828c-0.333-0.198-0.708-0.357-0.944-0.679
		c0.208-0.28,0.579-0.315,0.881-0.437c0.68-0.216,1.305-0.563,1.929-0.9c0.158-0.108,0.351-0.067,0.502,0.03
		c1.393,0.799,2.774,1.621,4.172,2.412c0.298,0.172,0.6-0.056,0.855-0.198c5.333-3.014,10.672-6.017,16.004-9.032
		c0.198-0.095,0.307-0.305,0.291-0.521c0.004-6.114,0.001-12.23,0.002-18.344c0.023-0.246-0.119-0.471-0.341-0.572
		c-5.416-3.05-10.828-6.104-16.243-9.155c-0.194-0.132-0.444-0.133-0.638-0.001C19.267,9.152,13.855,12.21,8.44,15.259
		c-0.221,0.101-0.37,0.323-0.343,0.569c0.001,6.114,0,12.23,0,18.345c-0.019,0.216,0.098,0.421,0.294,0.515
		c1.445,0.819,2.892,1.633,4.338,2.45c0.815,0.438,1.815,0.699,2.712,0.363c0.792-0.284,1.347-1.092,1.332-1.933
		c0.008-6.079-0.004-12.158,0.006-18.236c-0.02-0.27,0.236-0.493,0.499-0.468c0.694-0.005,1.389-0.009,2.084,0.002
		c0.29-0.007,0.489,0.284,0.453,0.556c-0.003,6.117,0.008,12.235-0.005,18.352c0.002,1.63-0.668,3.404-2.176,4.202
		c-1.858,0.962-4.154,0.758-5.989-0.165c-1.589-0.793-3.105-1.729-4.666-2.578c-1.085-0.562-1.834-1.735-1.827-2.964V15.734
		c-0.011-1.206,0.702-2.368,1.759-2.937C12.344,9.73,17.776,6.662,23.209,3.594L23.209,3.594z"/>
	<path fill="#0088FF" d="M27.949,16.433c2.37-0.152,4.907-0.09,7.039,1.077c1.651,0.895,2.566,2.772,2.595,4.607
		c-0.046,0.247-0.305,0.384-0.541,0.367c-0.688-0.001-1.375,0.009-2.063-0.005c-0.292,0.011-0.461-0.258-0.498-0.515
		c-0.198-0.878-0.676-1.747-1.502-2.17c-1.268-0.635-2.738-0.603-4.121-0.59c-1.009,0.054-2.095,0.141-2.95,0.735
		c-0.657,0.45-0.856,1.357-0.622,2.088c0.221,0.525,0.827,0.694,1.323,0.85c2.856,0.747,5.882,0.673,8.684,1.656
		c1.16,0.401,2.294,1.18,2.691,2.394c0.519,1.627,0.292,3.573-0.866,4.879c-0.939,1.075-2.307,1.66-3.671,1.978
		c-1.815,0.404-3.698,0.415-5.541,0.235c-1.733-0.198-3.536-0.653-4.874-1.833c-1.144-0.993-1.703-2.541-1.647-4.035
		c0.013-0.252,0.264-0.428,0.506-0.407c0.692-0.006,1.385-0.008,2.077,0.001c0.277-0.02,0.482,0.219,0.496,0.48
		c0.128,0.836,0.442,1.714,1.171,2.21c1.407,0.908,3.173,0.846,4.784,0.871c1.335-0.059,2.833-0.077,3.923-0.96
		c0.575-0.503,0.745-1.345,0.59-2.07c-0.168-0.611-0.808-0.896-1.357-1.083c-2.819-0.892-5.879-0.568-8.671-1.577
		c-1.134-0.401-2.229-1.158-2.665-2.323c-0.608-1.648-0.329-3.687,0.95-4.949C24.437,17.09,26.237,16.606,27.949,16.433
		L27.949,16.433z"/>
</g>
</svg>
